<svg aria-hidden="true" style="position: absolute; width: 0; height: 0; overflow: hidden;" version="1.1" xmlns="http://www.w3.org/2000/svg" xmlns:xlink="http://www.w3.org/1999/xlink">
<defs>
<symbol id="mobile-menu" viewBox="0 0 46 32">
<path d="M0.004 29.726c0 1.257 1.019 2.274 2.274 2.274h18.309c1.256 0 2.274-1.018 2.274-2.274s-1.018-2.274-2.274-2.274h-18.309c-1.257 0-2.274 1.017-2.274 2.274zM0.004 16c0 1.257 1.019 2.274 2.274 2.274h41.166c1.256 0 2.274-1.018 2.274-2.274s-1.018-2.274-2.274-2.274h-41.166c-1.257 0-2.274 1.019-2.274 2.274zM2.279 4.549c-1.256 0-2.274-1.018-2.274-2.274s1.018-2.274 2.274-2.274v0h27.451c1.256 0 2.274 1.018 2.274 2.274s-1.018 2.274-2.274 2.274v0h-27.451z"></path>
</symbol>
<symbol id="icon-logo" viewBox="0 0 32 32">
<path d="M2.709 8.463c-0.15 0.172-0.956 1.741-1.147 2.231-0.175 0.45-0.191 0.431 0.7 0.853 0.272 0.128 0.5 0.234 0.503 0.234s0.959 0.472 2.122 1.047c1.281 0.634 2.144 1.078 2.191 1.128 0.119 0.128 0.109 0.325-0.019 0.431-0.059 0.053-0.134 0.081-0.2 0.081-0.072 0-0.6-0.247-1.753-0.816-3.219-1.588-3.828-1.878-3.906-1.859-0.103 0.028-0.163 0.141-0.316 0.606-0.5 1.522-0.728 3.019-0.728 4.794v0.837l0.072 0.047c0.041 0.025 0.65 0.313 1.353 0.637 1.425 0.659 1.838 0.85 3.059 1.425 0.466 0.219 0.878 0.397 0.922 0.4 0.066 0.006 0.097-0.034 0.253-0.337 0.1-0.188 0.194-0.347 0.213-0.353 0.041-0.012 1.316 0.563 1.316 0.597 0 0.003-0.031 0.084-0.069 0.178-0.053 0.141-0.069 0.241-0.069 0.531-0.003 0.337 0.003 0.372 0.088 0.547 0.209 0.425 0.631 0.703 1.128 0.747 0.103 0.009 0.191 0.016 0.197 0.016 0.003 0.003 0.006 0.069 0.006 0.15 0.003 0.672 0.491 1.209 1.172 1.297l0.259 0.031 0.037 0.209c0.116 0.669 0.634 1.097 1.331 1.097 0.222 0 0.231 0.003 0.231 0.072 0 0.119 0.113 0.416 0.216 0.566 0.269 0.387 0.787 0.616 1.253 0.55 0.419-0.059 0.678-0.206 1.022-0.575 0.125-0.134 0.241-0.238 0.256-0.231 0.016 0.003 0.162 0.137 0.325 0.297 0.619 0.591 0.928 0.791 1.344 0.859 0.375 0.063 0.853-0.059 1.144-0.288 0.128-0.1 0.378-0.422 0.416-0.531 0.006-0.019 0.087-0.003 0.209 0.047 0.288 0.113 0.534 0.153 0.794 0.131 0.55-0.047 1.012-0.344 1.278-0.816l0.103-0.184 0.281 0.006c0.519 0.009 0.981-0.163 1.341-0.497 0.25-0.238 0.375-0.431 0.491-0.759 0.069-0.194 0.091-0.316 0.091-0.491v-0.234h0.369c0.219 0 0.428-0.019 0.522-0.044 0.597-0.169 1.097-0.647 1.281-1.234 0.116-0.359 0.128-0.628 0.050-0.984-0.034-0.163-0.063-0.297-0.056-0.303 0.003-0.003 0.366-0.169 0.803-0.366 0.509-0.231 0.809-0.35 0.828-0.331 0.019 0.016 0.109 0.166 0.206 0.334 0.144 0.253 0.184 0.303 0.244 0.297 0.072-0.009 0.316-0.119 1.816-0.822 1.319-0.619 1.975-0.925 2.825-1.322l0.744-0.347-0.016-1.128c-0.016-1.188-0.050-1.637-0.197-2.481-0.094-0.547-0.309-1.484-0.394-1.713-0.094-0.253-0.141-0.253-0.634 0.006-0.222 0.116-0.694 0.363-1.047 0.547s-0.922 0.478-1.266 0.656c-0.344 0.175-0.766 0.394-0.938 0.484s-0.481 0.253-0.688 0.359c-0.206 0.106-0.453 0.241-0.547 0.3-0.278 0.166-0.319 0.175-0.459 0.103-0.194-0.097-0.247-0.272-0.141-0.45 0.056-0.091 0.75-0.475 2.584-1.422 0.275-0.144 0.613-0.319 0.75-0.391 0.369-0.194 0.975-0.509 1.438-0.75 0.225-0.116 0.431-0.234 0.462-0.262 0.128-0.122 0.106-0.238-0.147-0.844-0.131-0.313-0.35-0.797-0.484-1.075-0.266-0.544-0.753-1.416-0.85-1.519l-0.063-0.066-0.491 0.247c-0.269 0.134-0.616 0.306-0.772 0.378-0.3 0.144-0.941 0.453-1.828 0.884-0.3 0.144-1.15 0.556-1.891 0.912-0.738 0.356-1.369 0.669-1.397 0.694-0.031 0.028-0.069 0.094-0.087 0.147-0.028 0.091-0.081 0.122-0.566 0.347-0.619 0.287-0.716 0.369-0.716 0.597 0 0.075 0.022 0.191 0.047 0.253l0.047 0.113-0.209-0.022c-0.313-0.031-0.744-0.162-1.009-0.306-0.128-0.069-0.438-0.262-0.688-0.428-0.634-0.431-0.847-0.531-1.391-0.662-0.228-0.056-0.372-0.072-0.75-0.072-0.6 0-0.953 0.069-2.281 0.434-0.206 0.056-0.438 0.113-0.512 0.122-0.441 0.066-1.028 0.375-1.262 0.666l-0.056 0.072h-1.375c-1.353 0-1.375 0-1.356-0.063 0.034-0.109-0.022-0.284-0.122-0.387-0.063-0.059-0.284-0.181-0.597-0.322-0.494-0.222-0.497-0.222-0.544-0.356-0.056-0.153-0.119-0.191-0.878-0.531-0.366-0.166-0.831-0.384-2.391-1.122-3.737-1.766-3.372-1.603-3.431-1.537zM18.203 12.45c0.262 0.084 0.591 0.259 1.069 0.572 0.347 0.228 0.881 0.503 1.191 0.616 0.328 0.116 0.706 0.175 1.144 0.175h0.378l0.084 0.15c0.181 0.325 2.712 5.372 2.731 5.444 0.016 0.072-0.009 0.091-0.337 0.259-0.194 0.1-0.387 0.178-0.425 0.178-0.044 0-0.159-0.072-0.269-0.166-0.269-0.222-1.856-1.678-2.3-2.103-0.666-0.641-2.887-2.647-3.141-2.834-0.069-0.050-0.2-0.128-0.291-0.169l-0.169-0.078-0.831 0.019c-0.459 0.012-1.066 0.028-1.344 0.034-0.591 0.012-0.55-0.009-0.678 0.359-0.156 0.431-0.347 0.762-0.591 1.009-0.262 0.266-0.5 0.4-0.841 0.475-0.394 0.087-0.713 0.009-0.938-0.231-0.278-0.297-0.222-0.491 0.241-0.859 0.162-0.131 0.331-0.284 0.375-0.341 0.106-0.137 0.262-0.478 0.438-0.959 0.275-0.747 0.534-0.975 1.253-1.109 0.153-0.028 0.453-0.1 0.669-0.159 1.231-0.338 1.497-0.391 1.972-0.375 0.275 0.009 0.419 0.031 0.609 0.094zM24.484 15.194c1.613 3.244 1.772 3.575 1.759 3.662-0.006 0.047-0.075 0.1-0.244 0.181-0.128 0.066-0.262 0.116-0.297 0.109-0.050-0.006-0.391-0.659-1.647-3.162-0.872-1.738-1.584-3.162-1.584-3.172-0.003-0.019 0.594-0.309 0.641-0.309 0.016-0.003 0.634 1.209 1.372 2.691zM9.438 12.688c0.172 0.088 0.313 0.172 0.313 0.188 0 0.041-0.422 0.931-0.969 2.047-0.244 0.497-0.547 1.116-0.672 1.375-0.125 0.256-0.466 0.953-0.756 1.547s-0.556 1.141-0.588 1.212c-0.072 0.163-0.094 0.159-0.478-0.031-0.225-0.113-0.256-0.137-0.237-0.194 0.019-0.066 0.559-1.191 1.294-2.691 0.209-0.431 0.472-0.966 0.578-1.188 0.106-0.225 0.359-0.744 0.563-1.156s0.422-0.866 0.488-1.009c0.066-0.141 0.128-0.256 0.137-0.256s0.156 0.072 0.328 0.156zM12.884 13.647c0.016 0.031-0.228 0.666-0.297 0.766-0.028 0.044-0.141 0.141-0.25 0.213-0.503 0.338-0.719 0.7-0.722 1.203-0.003 0.916 0.912 1.578 1.969 1.425 0.866-0.125 1.644-0.747 2.059-1.641l0.109-0.238h1.922l0.141 0.091c0.075 0.050 0.275 0.216 0.441 0.369 0.166 0.15 0.644 0.588 1.063 0.966 0.419 0.381 0.95 0.866 1.181 1.075 0.231 0.212 0.484 0.441 0.563 0.512s0.45 0.413 0.828 0.759c1.663 1.519 1.55 1.403 1.666 1.681 0.091 0.225 0.1 0.275 0.091 0.491-0.019 0.422-0.25 0.772-0.616 0.941-0.103 0.047-0.209 0.063-0.391 0.066-0.341 0.003-0.466-0.059-0.866-0.441-0.303-0.288-1.050-0.984-2.134-1.994-0.256-0.241-0.609-0.572-0.781-0.738-0.172-0.169-0.369-0.341-0.434-0.384-0.234-0.159-0.531-0.075-0.656 0.181-0.053 0.109-0.056 0.141-0.022 0.266 0.028 0.119 0.087 0.194 0.325 0.425 0.428 0.419 2.734 2.556 2.894 2.681 0.337 0.266 0.456 0.541 0.434 0.988-0.016 0.313-0.078 0.462-0.294 0.691-0.309 0.331-0.853 0.422-1.291 0.216-0.081-0.041-0.25-0.178-0.394-0.325-0.137-0.141-0.425-0.416-0.641-0.613s-0.553-0.512-0.75-0.703c-1.647-1.587-1.597-1.544-1.809-1.544-0.259 0-0.441 0.175-0.441 0.428 0 0.203 0.059 0.275 0.844 0.994 0.113 0.1 0.431 0.4 0.709 0.666 0.281 0.266 0.563 0.522 0.625 0.575 0.066 0.050 0.216 0.194 0.337 0.319 0.119 0.125 0.363 0.359 0.541 0.528 0.194 0.184 0.319 0.325 0.319 0.363 0 0.087-0.144 0.244-0.294 0.322-0.091 0.047-0.191 0.066-0.347 0.069-0.297 0.003-0.494-0.097-0.834-0.431-0.519-0.506-1.575-1.512-1.713-1.631-0.078-0.069-0.178-0.163-0.225-0.209-0.059-0.059-0.116-0.084-0.191-0.084-0.091 0-0.122-0.019-0.191-0.125-0.1-0.15-0.359-0.363-0.55-0.444-0.084-0.038-0.253-0.072-0.416-0.081l-0.278-0.022-0.009-0.172c-0.044-0.622-0.519-1.091-1.153-1.144-0.238-0.022-0.244-0.025-0.228-0.1 0.028-0.144-0.044-0.519-0.131-0.712-0.278-0.6-0.963-0.903-1.591-0.703-0.262 0.084-0.369 0.144-0.537 0.303l-0.15 0.141-0.094-0.156c-0.137-0.219-0.334-0.4-0.569-0.512-0.191-0.094-0.222-0.1-0.563-0.1s-0.372 0.006-0.566 0.1c-0.131 0.063-0.281 0.172-0.419 0.306l-0.216 0.212-0.156-0.053c-0.088-0.028-0.184-0.069-0.216-0.094-0.088-0.066-0.153 0.081 1.034-2.284 0.275-0.55 0.531-1.056 0.566-1.125 0.116-0.213 1.128-2.303 1.128-2.325 0-0.009 0.028-0.066 0.063-0.122l0.063-0.1h1.247c0.688 0 1.256 0.009 1.262 0.022zM4.853 16.988c0.325 0.166 0.466 0.553 0.313 0.875-0.081 0.175-0.316 0.325-0.506 0.325-0.253-0.003-0.516-0.172-0.594-0.384-0.053-0.141-0.041-0.387 0.025-0.516 0.15-0.294 0.5-0.431 0.763-0.3zM27.744 16.984c0.253 0.106 0.381 0.316 0.381 0.619 0 0.2-0.028 0.266-0.178 0.422-0.063 0.063-0.3 0.163-0.397 0.163-0.447 0.003-0.756-0.503-0.55-0.906 0.144-0.281 0.469-0.409 0.744-0.297zM9.331 19.984c0.291 0.147 0.403 0.459 0.262 0.738-0.088 0.175-0.5 0.688-0.616 0.772-0.394 0.275-0.922 0.050-0.922-0.394 0-0.206 0.075-0.366 0.331-0.688 0.25-0.313 0.353-0.406 0.512-0.462 0.169-0.059 0.256-0.053 0.431 0.034zM11.637 20.294c0.172 0.1 0.269 0.278 0.269 0.484 0 0.194-0.053 0.309-0.303 0.634-0.875 1.156-1.128 1.478-1.213 1.544-0.188 0.144-0.519 0.153-0.7 0.022-0.222-0.166-0.287-0.503-0.144-0.756 0.097-0.169 1.137-1.55 1.328-1.762 0.075-0.084 0.181-0.175 0.234-0.197 0.153-0.069 0.384-0.053 0.528 0.031zM12.947 21.794c0.225 0.097 0.384 0.372 0.35 0.6-0.022 0.163-0.097 0.275-0.55 0.834-0.953 1.172-0.941 1.163-1.175 1.197-0.262 0.038-0.503-0.084-0.606-0.313-0.075-0.166-0.075-0.313 0.003-0.481 0.063-0.137 1.181-1.541 1.369-1.712 0.169-0.159 0.416-0.209 0.609-0.125zM14.456 23.122c0.241 0.109 0.363 0.366 0.313 0.641-0.012 0.063-0.094 0.206-0.181 0.322-0.244 0.322-0.997 1.197-1.159 1.344-0.316 0.291-0.731 0.238-0.919-0.113-0.088-0.169-0.091-0.347-0.012-0.522 0.056-0.122 0.581-0.753 1.122-1.353 0.334-0.369 0.547-0.45 0.838-0.319zM15.947 24.428c0.175 0.169 0.434 0.409 0.575 0.538 0.35 0.316 0.419 0.509 0.266 0.753-0.141 0.225-0.475 0.316-0.728 0.194-0.063-0.028-0.338-0.266-0.606-0.528l-0.494-0.475 0.188-0.212c0.103-0.116 0.244-0.294 0.319-0.394 0.072-0.097 0.137-0.178 0.147-0.178s0.159 0.137 0.334 0.303z"></path>
</symbol>
<symbol id="icon-close" viewBox="0 0 32 32">
<path d="M8.533 25.333l-1.867-1.867 7.467-7.467-7.467-7.467 1.867-1.867 7.467 7.467 7.467-7.467 1.867 1.867-7.467 7.467 7.467 7.467-1.867 1.867-7.467-7.467-7.467 7.467z"></path>
</symbol>
</defs>
</svg>
